<svg width="40" height="40" viewBox="0 0 40 40" fill="none" xmlns="http://www.w3.org/2000/svg">
  <rect x="0.5" y="0.5" width="39" height="39" rx="3.5" fill="white" stroke="#E6E6E6"/>
  <circle cx="20" cy="20" r="14" fill="url(#paint0_linear_uprimerpay)"/>
  <path d="M13 14.5V22.2C13 25.45 15.15 27.5 18.55 27.5C21.95 27.5 24.1 25.45 24.1 22.2V14.5H21.05V22.05C21.05 23.8 20.1 24.85 18.55 24.85C17 24.85 16.05 23.8 16.05 22.05V14.5H13Z" fill="white"/>
  <path d="M25.4 27.25V14.5H30.15C32.95 14.5 34.8 16.1 34.8 18.65C34.8 21.2 32.95 22.85 30.15 22.85H28.35V27.25H25.4ZM28.35 20.3H29.85C31.05 20.3 31.8 19.7 31.8 18.7C31.8 17.7 31.05 17.1 29.85 17.1H28.35V20.3Z" fill="white"/>
  <defs>
    <linearGradient id="paint0_linear_uprimerpay" x1="8" y1="8" x2="32" y2="32" gradientUnits="userSpaceOnUse">
      <stop stop-color="#16A34A"/>
      <stop offset="0.52" stop-color="#0EA5E9"/>
      <stop offset="1" stop-color="#1E3A8A"/>
    </linearGradient>
  </defs>
</svg>
